G04 #@! TF.GenerationSoftware,KiCad,Pcbnew,5.0.2*
G04 #@! TF.CreationDate,2020-03-26T08:27:29+01:00*
G04 #@! TF.ProjectId,cowdin-dcdc,636f7764-696e-42d6-9463-64632e6b6963,1*
G04 #@! TF.SameCoordinates,Original*
G04 #@! TF.FileFunction,Legend,Top*
G04 #@! TF.FilePolarity,Positive*
%FSLAX46Y46*%
G04 Gerber Fmt 4.6, Leading zero omitted, Abs format (unit mm)*
G04 Created by KiCad (PCBNEW 5.0.2) date jeu. 26 mars 2020 08:27:29 CET*
%MOMM*%
%LPD*%
G01*
G04 APERTURE LIST*
%ADD10C,0.150000*%
%ADD11C,0.101600*%
%ADD12C,0.050800*%
%ADD13C,0.127000*%
%ADD14C,0.076200*%
G04 APERTURE END LIST*
D10*
X141500000Y-74000000D02*
X155500000Y-74000000D01*
D11*
G04 #@! TO.C,P1*
X140880000Y-71910000D02*
X156120000Y-71910000D01*
X140880000Y-61750000D02*
X156120000Y-61750000D01*
X140880000Y-71910000D02*
X140880000Y-61750000D01*
X156120000Y-61750000D02*
X156120000Y-71910000D01*
G04 #@! TO.C,P2*
X156120000Y-138090000D02*
X156120000Y-148250000D01*
X140880000Y-148250000D02*
X140880000Y-138090000D01*
X140880000Y-138090000D02*
X156120000Y-138090000D01*
X140880000Y-148250000D02*
X156120000Y-148250000D01*
D12*
G04 #@! TO.C,U1*
X147496320Y-101503680D02*
X147496320Y-101432560D01*
X147496320Y-101503680D02*
X150503680Y-101503680D01*
X150503680Y-101503680D02*
X150503680Y-101432560D01*
X147496320Y-98496320D02*
X147496320Y-98567440D01*
X147496320Y-98496320D02*
X150503680Y-98496320D01*
X150503680Y-98496320D02*
X150503680Y-98567440D01*
D10*
G04 #@! TO.C,D2*
X146550000Y-104650000D02*
X146550000Y-104250000D01*
X151150000Y-102250000D02*
X151150000Y-101850000D01*
X148050000Y-104650000D02*
X148050000Y-101850000D01*
X146550000Y-104650000D02*
X151150000Y-104650000D01*
X151150000Y-104650000D02*
X151150000Y-104250000D01*
X151150000Y-101850000D02*
X146550000Y-101850000D01*
X146550000Y-101850000D02*
X146550000Y-102250000D01*
D12*
G04 #@! TO.C,L1*
X143496200Y-106309680D02*
X143496200Y-115509560D01*
X144496960Y-116510320D02*
X146437520Y-116510320D01*
X144496960Y-116510320D02*
X143496200Y-115509560D01*
X152503040Y-116510320D02*
X150562480Y-116510320D01*
X153503800Y-115509560D02*
X153503800Y-107310440D01*
X152503040Y-116510320D02*
X153503800Y-115509560D01*
X152503040Y-106309680D02*
X150562480Y-106309680D01*
X152503040Y-106309680D02*
X153503800Y-107310440D01*
X143496200Y-106309680D02*
X146437520Y-106309680D01*
D13*
G04 #@! TO.C,R1*
X149143000Y-82865000D02*
X149143000Y-84135000D01*
X146857000Y-82865000D02*
X149143000Y-82865000D01*
X146857000Y-84135000D02*
X146857000Y-82865000D01*
X149143000Y-84135000D02*
X146857000Y-84135000D01*
G04 #@! TO.C,R2*
X145643000Y-85885000D02*
X143357000Y-85885000D01*
X143357000Y-85885000D02*
X143357000Y-84615000D01*
X143357000Y-84615000D02*
X145643000Y-84615000D01*
X145643000Y-84615000D02*
X145643000Y-85885000D01*
G04 #@! TO.C,R3*
X150893000Y-98135000D02*
X148607000Y-98135000D01*
X148607000Y-98135000D02*
X148607000Y-96865000D01*
X148607000Y-96865000D02*
X150893000Y-96865000D01*
X150893000Y-96865000D02*
X150893000Y-98135000D01*
D11*
G04 #@! TO.C,Q1*
X143544200Y-82505200D02*
X143544200Y-75494800D01*
X143544200Y-75494800D02*
X147455800Y-75494800D01*
X147455800Y-75494800D02*
X147455800Y-82505200D01*
X147455800Y-82505200D02*
X143544200Y-82505200D01*
G04 #@! TO.C,D1*
X143636400Y-82865000D02*
X145363600Y-82865000D01*
X145363600Y-82865000D02*
X145363600Y-84135000D01*
X145363600Y-84135000D02*
X143636400Y-84135000D01*
X143636400Y-84135000D02*
X143636400Y-82865000D01*
D10*
G04 #@! TO.C,C1*
X144690000Y-89484000D02*
X144690000Y-91516000D01*
X144817000Y-91897000D02*
X144817000Y-89103000D01*
X144944000Y-88849000D02*
X144944000Y-92151000D01*
X145071000Y-92405000D02*
X145071000Y-88595000D01*
X145198000Y-92532000D02*
X145198000Y-88468000D01*
X145325000Y-88214000D02*
X145325000Y-92786000D01*
X144309000Y-86309000D02*
X144309000Y-94691000D01*
X144309000Y-94691000D02*
X151929000Y-94691000D01*
X151929000Y-94691000D02*
X152691000Y-93929000D01*
X152691000Y-93929000D02*
X152691000Y-87071000D01*
X152691000Y-87071000D02*
X151929000Y-86309000D01*
X151929000Y-86309000D02*
X144309000Y-86309000D01*
X152183000Y-90500000D02*
X151421000Y-90500000D01*
X151802000Y-90119000D02*
X151802000Y-90881000D01*
X152437000Y-90500000D02*
G75*
G03X152437000Y-90500000I-3937000J0D01*
G01*
D13*
G04 #@! TO.C,C2*
X149960000Y-83607000D02*
X149960000Y-85893000D01*
X149960000Y-85893000D02*
X151611000Y-85893000D01*
X153389000Y-83607000D02*
X155040000Y-83607000D01*
X155040000Y-83607000D02*
X155040000Y-85893000D01*
X155040000Y-85893000D02*
X153389000Y-85893000D01*
X151611000Y-83607000D02*
X149960000Y-83607000D01*
G04 #@! TO.C,C3*
X150893000Y-96635000D02*
X148607000Y-96635000D01*
X148607000Y-96635000D02*
X148607000Y-95365000D01*
X148607000Y-95365000D02*
X150893000Y-95365000D01*
X150893000Y-95365000D02*
X150893000Y-96635000D01*
G04 #@! TO.C,C4*
X153115000Y-102107000D02*
X154385000Y-102107000D01*
X153115000Y-104393000D02*
X153115000Y-102107000D01*
X154385000Y-104393000D02*
X153115000Y-104393000D01*
X154385000Y-102107000D02*
X154385000Y-104393000D01*
G04 #@! TO.C,C5*
X145385000Y-98857000D02*
X145385000Y-101143000D01*
X145385000Y-101143000D02*
X144115000Y-101143000D01*
X144115000Y-101143000D02*
X144115000Y-98857000D01*
X144115000Y-98857000D02*
X145385000Y-98857000D01*
G04 #@! TO.C,C6*
X142615000Y-98857000D02*
X143885000Y-98857000D01*
X142615000Y-101143000D02*
X142615000Y-98857000D01*
X143885000Y-101143000D02*
X142615000Y-101143000D01*
X143885000Y-98857000D02*
X143885000Y-101143000D01*
G04 #@! TO.C,R4*
X145143000Y-98635000D02*
X142857000Y-98635000D01*
X142857000Y-98635000D02*
X142857000Y-97365000D01*
X142857000Y-97365000D02*
X145143000Y-97365000D01*
X145143000Y-97365000D02*
X145143000Y-98635000D01*
G04 #@! TO.C,R5*
X144993000Y-104615000D02*
X144993000Y-105885000D01*
X142707000Y-104615000D02*
X144993000Y-104615000D01*
X142707000Y-105885000D02*
X142707000Y-104615000D01*
X144993000Y-105885000D02*
X142707000Y-105885000D01*
G04 #@! TO.C,R6*
X144993000Y-104135000D02*
X142707000Y-104135000D01*
X142707000Y-104135000D02*
X142707000Y-102865000D01*
X142707000Y-102865000D02*
X144993000Y-102865000D01*
X144993000Y-102865000D02*
X144993000Y-104135000D01*
G04 #@! TO.C,C7*
X151357000Y-118385000D02*
X151357000Y-117115000D01*
X153643000Y-118385000D02*
X151357000Y-118385000D01*
X153643000Y-117115000D02*
X153643000Y-118385000D01*
X151357000Y-117115000D02*
X153643000Y-117115000D01*
D11*
G04 #@! TO.C,C8*
X144850000Y-118850000D02*
X144850000Y-119650000D01*
X152150000Y-118850000D02*
X152150000Y-119650000D01*
X144850000Y-123150000D02*
X144850000Y-122350000D01*
X152150000Y-123150000D02*
X152150000Y-122350000D01*
X144850000Y-118850000D02*
X152150000Y-118850000D01*
X152150000Y-123150000D02*
X144850000Y-123150000D01*
D13*
G04 #@! TO.C,C9*
X149643000Y-125635000D02*
X147357000Y-125635000D01*
X147357000Y-125635000D02*
X147357000Y-124365000D01*
X147357000Y-124365000D02*
X149643000Y-124365000D01*
X149643000Y-124365000D02*
X149643000Y-125635000D01*
G04 #@! TO.C,C10*
X151617000Y-124365000D02*
X153903000Y-124365000D01*
X153903000Y-124365000D02*
X153903000Y-125635000D01*
X153903000Y-125635000D02*
X151617000Y-125635000D01*
X151617000Y-125635000D02*
X151617000Y-124365000D01*
G04 #@! TO.C,C11*
X149643000Y-126365000D02*
X149643000Y-127635000D01*
X147357000Y-126365000D02*
X149643000Y-126365000D01*
X147357000Y-127635000D02*
X147357000Y-126365000D01*
X149643000Y-127635000D02*
X147357000Y-127635000D01*
G04 #@! TO.C,C12*
X151607000Y-126365000D02*
X153893000Y-126365000D01*
X153893000Y-126365000D02*
X153893000Y-127635000D01*
X153893000Y-127635000D02*
X151607000Y-127635000D01*
X151607000Y-127635000D02*
X151607000Y-126365000D01*
D11*
G04 #@! TO.C,C13*
X144850000Y-128850000D02*
X144850000Y-129650000D01*
X152150000Y-128850000D02*
X152150000Y-129650000D01*
X144850000Y-133150000D02*
X144850000Y-132350000D01*
X152150000Y-133150000D02*
X152150000Y-132350000D01*
X144850000Y-128850000D02*
X152150000Y-128850000D01*
X152150000Y-133150000D02*
X144850000Y-133150000D01*
G04 #@! TO.C,P1*
X147761904Y-73452380D02*
X147761904Y-72452380D01*
X148142857Y-72452380D01*
X148238095Y-72500000D01*
X148285714Y-72547619D01*
X148333333Y-72642857D01*
X148333333Y-72785714D01*
X148285714Y-72880952D01*
X148238095Y-72928571D01*
X148142857Y-72976190D01*
X147761904Y-72976190D01*
X149285714Y-73452380D02*
X148714285Y-73452380D01*
X149000000Y-73452380D02*
X149000000Y-72452380D01*
X148904761Y-72595238D01*
X148809523Y-72690476D01*
X148714285Y-72738095D01*
G04 #@! TO.C,P2*
X151411904Y-137802380D02*
X151411904Y-136802380D01*
X151792857Y-136802380D01*
X151888095Y-136850000D01*
X151935714Y-136897619D01*
X151983333Y-136992857D01*
X151983333Y-137135714D01*
X151935714Y-137230952D01*
X151888095Y-137278571D01*
X151792857Y-137326190D01*
X151411904Y-137326190D01*
X152364285Y-136897619D02*
X152411904Y-136850000D01*
X152507142Y-136802380D01*
X152745238Y-136802380D01*
X152840476Y-136850000D01*
X152888095Y-136897619D01*
X152935714Y-136992857D01*
X152935714Y-137088095D01*
X152888095Y-137230952D01*
X152316666Y-137802380D01*
X152935714Y-137802380D01*
G04 #@! TO.C,D2*
X150657571Y-105834714D02*
X150657571Y-105072714D01*
X150839000Y-105072714D01*
X150947857Y-105109000D01*
X151020428Y-105181571D01*
X151056714Y-105254142D01*
X151093000Y-105399285D01*
X151093000Y-105508142D01*
X151056714Y-105653285D01*
X151020428Y-105725857D01*
X150947857Y-105798428D01*
X150839000Y-105834714D01*
X150657571Y-105834714D01*
X151383285Y-105145285D02*
X151419571Y-105109000D01*
X151492142Y-105072714D01*
X151673571Y-105072714D01*
X151746142Y-105109000D01*
X151782428Y-105145285D01*
X151818714Y-105217857D01*
X151818714Y-105290428D01*
X151782428Y-105399285D01*
X151347000Y-105834714D01*
X151818714Y-105834714D01*
G04 #@! TO.C,F1*
D14*
X152246000Y-78945571D02*
X151992000Y-78945571D01*
X151992000Y-79344714D02*
X151992000Y-78582714D01*
X152354857Y-78582714D01*
X153044285Y-79344714D02*
X152608857Y-79344714D01*
X152826571Y-79344714D02*
X152826571Y-78582714D01*
X152754000Y-78691571D01*
X152681428Y-78764142D01*
X152608857Y-78800428D01*
G04 #@! TO.C,R1*
D11*
X148643000Y-85174714D02*
X148389000Y-84811857D01*
X148207571Y-85174714D02*
X148207571Y-84412714D01*
X148497857Y-84412714D01*
X148570428Y-84449000D01*
X148606714Y-84485285D01*
X148643000Y-84557857D01*
X148643000Y-84666714D01*
X148606714Y-84739285D01*
X148570428Y-84775571D01*
X148497857Y-84811857D01*
X148207571Y-84811857D01*
X149368714Y-85174714D02*
X148933285Y-85174714D01*
X149151000Y-85174714D02*
X149151000Y-84412714D01*
X149078428Y-84521571D01*
X149005857Y-84594142D01*
X148933285Y-84630428D01*
G04 #@! TO.C,R2*
X146523000Y-85594714D02*
X146269000Y-85231857D01*
X146087571Y-85594714D02*
X146087571Y-84832714D01*
X146377857Y-84832714D01*
X146450428Y-84869000D01*
X146486714Y-84905285D01*
X146523000Y-84977857D01*
X146523000Y-85086714D01*
X146486714Y-85159285D01*
X146450428Y-85195571D01*
X146377857Y-85231857D01*
X146087571Y-85231857D01*
X146813285Y-84905285D02*
X146849571Y-84869000D01*
X146922142Y-84832714D01*
X147103571Y-84832714D01*
X147176142Y-84869000D01*
X147212428Y-84905285D01*
X147248714Y-84977857D01*
X147248714Y-85050428D01*
X147212428Y-85159285D01*
X146777000Y-85594714D01*
X147248714Y-85594714D01*
G04 #@! TO.C,R3*
X151873000Y-97844714D02*
X151619000Y-97481857D01*
X151437571Y-97844714D02*
X151437571Y-97082714D01*
X151727857Y-97082714D01*
X151800428Y-97119000D01*
X151836714Y-97155285D01*
X151873000Y-97227857D01*
X151873000Y-97336714D01*
X151836714Y-97409285D01*
X151800428Y-97445571D01*
X151727857Y-97481857D01*
X151437571Y-97481857D01*
X152127000Y-97082714D02*
X152598714Y-97082714D01*
X152344714Y-97373000D01*
X152453571Y-97373000D01*
X152526142Y-97409285D01*
X152562428Y-97445571D01*
X152598714Y-97518142D01*
X152598714Y-97699571D01*
X152562428Y-97772142D01*
X152526142Y-97808428D01*
X152453571Y-97844714D01*
X152235857Y-97844714D01*
X152163285Y-97808428D01*
X152127000Y-97772142D01*
G04 #@! TO.C,Q1*
X142907285Y-76142571D02*
X142871000Y-76215142D01*
X142798428Y-76287714D01*
X142689571Y-76396571D01*
X142653285Y-76469142D01*
X142653285Y-76541714D01*
X142834714Y-76505428D02*
X142798428Y-76578000D01*
X142725857Y-76650571D01*
X142580714Y-76686857D01*
X142326714Y-76686857D01*
X142181571Y-76650571D01*
X142109000Y-76578000D01*
X142072714Y-76505428D01*
X142072714Y-76360285D01*
X142109000Y-76287714D01*
X142181571Y-76215142D01*
X142326714Y-76178857D01*
X142580714Y-76178857D01*
X142725857Y-76215142D01*
X142798428Y-76287714D01*
X142834714Y-76360285D01*
X142834714Y-76505428D01*
X142834714Y-75453142D02*
X142834714Y-75888571D01*
X142834714Y-75670857D02*
X142072714Y-75670857D01*
X142181571Y-75743428D01*
X142254142Y-75816000D01*
X142290428Y-75888571D01*
G04 #@! TO.C,D1*
X143354714Y-82862428D02*
X142592714Y-82862428D01*
X142592714Y-82681000D01*
X142629000Y-82572142D01*
X142701571Y-82499571D01*
X142774142Y-82463285D01*
X142919285Y-82427000D01*
X143028142Y-82427000D01*
X143173285Y-82463285D01*
X143245857Y-82499571D01*
X143318428Y-82572142D01*
X143354714Y-82681000D01*
X143354714Y-82862428D01*
X143354714Y-81701285D02*
X143354714Y-82136714D01*
X143354714Y-81919000D02*
X142592714Y-81919000D01*
X142701571Y-81991571D01*
X142774142Y-82064142D01*
X142810428Y-82136714D01*
G04 #@! TO.C,C1*
D10*
X154107142Y-93416666D02*
X154154761Y-93464285D01*
X154202380Y-93607142D01*
X154202380Y-93702380D01*
X154154761Y-93845238D01*
X154059523Y-93940476D01*
X153964285Y-93988095D01*
X153773809Y-94035714D01*
X153630952Y-94035714D01*
X153440476Y-93988095D01*
X153345238Y-93940476D01*
X153250000Y-93845238D01*
X153202380Y-93702380D01*
X153202380Y-93607142D01*
X153250000Y-93464285D01*
X153297619Y-93416666D01*
X154202380Y-92464285D02*
X154202380Y-93035714D01*
X154202380Y-92750000D02*
X153202380Y-92750000D01*
X153345238Y-92845238D01*
X153440476Y-92940476D01*
X153488095Y-93035714D01*
G04 #@! TO.C,C2*
D13*
X153473000Y-87702142D02*
X153436714Y-87738428D01*
X153327857Y-87774714D01*
X153255285Y-87774714D01*
X153146428Y-87738428D01*
X153073857Y-87665857D01*
X153037571Y-87593285D01*
X153001285Y-87448142D01*
X153001285Y-87339285D01*
X153037571Y-87194142D01*
X153073857Y-87121571D01*
X153146428Y-87049000D01*
X153255285Y-87012714D01*
X153327857Y-87012714D01*
X153436714Y-87049000D01*
X153473000Y-87085285D01*
X153763285Y-87085285D02*
X153799571Y-87049000D01*
X153872142Y-87012714D01*
X154053571Y-87012714D01*
X154126142Y-87049000D01*
X154162428Y-87085285D01*
X154198714Y-87157857D01*
X154198714Y-87230428D01*
X154162428Y-87339285D01*
X153727000Y-87774714D01*
X154198714Y-87774714D01*
G04 #@! TO.C,C3*
D11*
X151873000Y-96272142D02*
X151836714Y-96308428D01*
X151727857Y-96344714D01*
X151655285Y-96344714D01*
X151546428Y-96308428D01*
X151473857Y-96235857D01*
X151437571Y-96163285D01*
X151401285Y-96018142D01*
X151401285Y-95909285D01*
X151437571Y-95764142D01*
X151473857Y-95691571D01*
X151546428Y-95619000D01*
X151655285Y-95582714D01*
X151727857Y-95582714D01*
X151836714Y-95619000D01*
X151873000Y-95655285D01*
X152127000Y-95582714D02*
X152598714Y-95582714D01*
X152344714Y-95873000D01*
X152453571Y-95873000D01*
X152526142Y-95909285D01*
X152562428Y-95945571D01*
X152598714Y-96018142D01*
X152598714Y-96199571D01*
X152562428Y-96272142D01*
X152526142Y-96308428D01*
X152453571Y-96344714D01*
X152235857Y-96344714D01*
X152163285Y-96308428D01*
X152127000Y-96272142D01*
G04 #@! TO.C,C4*
X154022142Y-101377000D02*
X154058428Y-101413285D01*
X154094714Y-101522142D01*
X154094714Y-101594714D01*
X154058428Y-101703571D01*
X153985857Y-101776142D01*
X153913285Y-101812428D01*
X153768142Y-101848714D01*
X153659285Y-101848714D01*
X153514142Y-101812428D01*
X153441571Y-101776142D01*
X153369000Y-101703571D01*
X153332714Y-101594714D01*
X153332714Y-101522142D01*
X153369000Y-101413285D01*
X153405285Y-101377000D01*
X153586714Y-100723857D02*
X154094714Y-100723857D01*
X153296428Y-100905285D02*
X153840714Y-101086714D01*
X153840714Y-100615000D01*
G04 #@! TO.C,C5*
X145022142Y-96527000D02*
X145058428Y-96563285D01*
X145094714Y-96672142D01*
X145094714Y-96744714D01*
X145058428Y-96853571D01*
X144985857Y-96926142D01*
X144913285Y-96962428D01*
X144768142Y-96998714D01*
X144659285Y-96998714D01*
X144514142Y-96962428D01*
X144441571Y-96926142D01*
X144369000Y-96853571D01*
X144332714Y-96744714D01*
X144332714Y-96672142D01*
X144369000Y-96563285D01*
X144405285Y-96527000D01*
X144332714Y-95837571D02*
X144332714Y-96200428D01*
X144695571Y-96236714D01*
X144659285Y-96200428D01*
X144623000Y-96127857D01*
X144623000Y-95946428D01*
X144659285Y-95873857D01*
X144695571Y-95837571D01*
X144768142Y-95801285D01*
X144949571Y-95801285D01*
X145022142Y-95837571D01*
X145058428Y-95873857D01*
X145094714Y-95946428D01*
X145094714Y-96127857D01*
X145058428Y-96200428D01*
X145022142Y-96236714D01*
G04 #@! TO.C,C6*
X143522142Y-96527000D02*
X143558428Y-96563285D01*
X143594714Y-96672142D01*
X143594714Y-96744714D01*
X143558428Y-96853571D01*
X143485857Y-96926142D01*
X143413285Y-96962428D01*
X143268142Y-96998714D01*
X143159285Y-96998714D01*
X143014142Y-96962428D01*
X142941571Y-96926142D01*
X142869000Y-96853571D01*
X142832714Y-96744714D01*
X142832714Y-96672142D01*
X142869000Y-96563285D01*
X142905285Y-96527000D01*
X142832714Y-95873857D02*
X142832714Y-96019000D01*
X142869000Y-96091571D01*
X142905285Y-96127857D01*
X143014142Y-96200428D01*
X143159285Y-96236714D01*
X143449571Y-96236714D01*
X143522142Y-96200428D01*
X143558428Y-96164142D01*
X143594714Y-96091571D01*
X143594714Y-95946428D01*
X143558428Y-95873857D01*
X143522142Y-95837571D01*
X143449571Y-95801285D01*
X143268142Y-95801285D01*
X143195571Y-95837571D01*
X143159285Y-95873857D01*
X143123000Y-95946428D01*
X143123000Y-96091571D01*
X143159285Y-96164142D01*
X143195571Y-96200428D01*
X143268142Y-96236714D01*
G04 #@! TO.C,R4*
X143873000Y-95544714D02*
X143619000Y-95181857D01*
X143437571Y-95544714D02*
X143437571Y-94782714D01*
X143727857Y-94782714D01*
X143800428Y-94819000D01*
X143836714Y-94855285D01*
X143873000Y-94927857D01*
X143873000Y-95036714D01*
X143836714Y-95109285D01*
X143800428Y-95145571D01*
X143727857Y-95181857D01*
X143437571Y-95181857D01*
X144526142Y-95036714D02*
X144526142Y-95544714D01*
X144344714Y-94746428D02*
X144163285Y-95290714D01*
X144635000Y-95290714D01*
G04 #@! TO.C,R5*
X143344714Y-109127000D02*
X142981857Y-109381000D01*
X143344714Y-109562428D02*
X142582714Y-109562428D01*
X142582714Y-109272142D01*
X142619000Y-109199571D01*
X142655285Y-109163285D01*
X142727857Y-109127000D01*
X142836714Y-109127000D01*
X142909285Y-109163285D01*
X142945571Y-109199571D01*
X142981857Y-109272142D01*
X142981857Y-109562428D01*
X142582714Y-108437571D02*
X142582714Y-108800428D01*
X142945571Y-108836714D01*
X142909285Y-108800428D01*
X142873000Y-108727857D01*
X142873000Y-108546428D01*
X142909285Y-108473857D01*
X142945571Y-108437571D01*
X143018142Y-108401285D01*
X143199571Y-108401285D01*
X143272142Y-108437571D01*
X143308428Y-108473857D01*
X143344714Y-108546428D01*
X143344714Y-108727857D01*
X143308428Y-108800428D01*
X143272142Y-108836714D01*
G04 #@! TO.C,R6*
X143344714Y-107127000D02*
X142981857Y-107381000D01*
X143344714Y-107562428D02*
X142582714Y-107562428D01*
X142582714Y-107272142D01*
X142619000Y-107199571D01*
X142655285Y-107163285D01*
X142727857Y-107127000D01*
X142836714Y-107127000D01*
X142909285Y-107163285D01*
X142945571Y-107199571D01*
X142981857Y-107272142D01*
X142981857Y-107562428D01*
X142582714Y-106473857D02*
X142582714Y-106619000D01*
X142619000Y-106691571D01*
X142655285Y-106727857D01*
X142764142Y-106800428D01*
X142909285Y-106836714D01*
X143199571Y-106836714D01*
X143272142Y-106800428D01*
X143308428Y-106764142D01*
X143344714Y-106691571D01*
X143344714Y-106546428D01*
X143308428Y-106473857D01*
X143272142Y-106437571D01*
X143199571Y-106401285D01*
X143018142Y-106401285D01*
X142945571Y-106437571D01*
X142909285Y-106473857D01*
X142873000Y-106546428D01*
X142873000Y-106691571D01*
X142909285Y-106764142D01*
X142945571Y-106800428D01*
X143018142Y-106836714D01*
G04 #@! TO.C,C7*
X153693000Y-116672142D02*
X153656714Y-116708428D01*
X153547857Y-116744714D01*
X153475285Y-116744714D01*
X153366428Y-116708428D01*
X153293857Y-116635857D01*
X153257571Y-116563285D01*
X153221285Y-116418142D01*
X153221285Y-116309285D01*
X153257571Y-116164142D01*
X153293857Y-116091571D01*
X153366428Y-116019000D01*
X153475285Y-115982714D01*
X153547857Y-115982714D01*
X153656714Y-116019000D01*
X153693000Y-116055285D01*
X153947000Y-115982714D02*
X154455000Y-115982714D01*
X154128428Y-116744714D01*
G04 #@! TO.C,C9*
X148373000Y-124022142D02*
X148336714Y-124058428D01*
X148227857Y-124094714D01*
X148155285Y-124094714D01*
X148046428Y-124058428D01*
X147973857Y-123985857D01*
X147937571Y-123913285D01*
X147901285Y-123768142D01*
X147901285Y-123659285D01*
X147937571Y-123514142D01*
X147973857Y-123441571D01*
X148046428Y-123369000D01*
X148155285Y-123332714D01*
X148227857Y-123332714D01*
X148336714Y-123369000D01*
X148373000Y-123405285D01*
X148735857Y-124094714D02*
X148881000Y-124094714D01*
X148953571Y-124058428D01*
X148989857Y-124022142D01*
X149062428Y-123913285D01*
X149098714Y-123768142D01*
X149098714Y-123477857D01*
X149062428Y-123405285D01*
X149026142Y-123369000D01*
X148953571Y-123332714D01*
X148808428Y-123332714D01*
X148735857Y-123369000D01*
X148699571Y-123405285D01*
X148663285Y-123477857D01*
X148663285Y-123659285D01*
X148699571Y-123731857D01*
X148735857Y-123768142D01*
X148808428Y-123804428D01*
X148953571Y-123804428D01*
X149026142Y-123768142D01*
X149062428Y-123731857D01*
X149098714Y-123659285D01*
G04 #@! TO.C,C10*
X152270142Y-124022142D02*
X152233857Y-124058428D01*
X152125000Y-124094714D01*
X152052428Y-124094714D01*
X151943571Y-124058428D01*
X151871000Y-123985857D01*
X151834714Y-123913285D01*
X151798428Y-123768142D01*
X151798428Y-123659285D01*
X151834714Y-123514142D01*
X151871000Y-123441571D01*
X151943571Y-123369000D01*
X152052428Y-123332714D01*
X152125000Y-123332714D01*
X152233857Y-123369000D01*
X152270142Y-123405285D01*
X152995857Y-124094714D02*
X152560428Y-124094714D01*
X152778142Y-124094714D02*
X152778142Y-123332714D01*
X152705571Y-123441571D01*
X152633000Y-123514142D01*
X152560428Y-123550428D01*
X153467571Y-123332714D02*
X153540142Y-123332714D01*
X153612714Y-123369000D01*
X153649000Y-123405285D01*
X153685285Y-123477857D01*
X153721571Y-123623000D01*
X153721571Y-123804428D01*
X153685285Y-123949571D01*
X153649000Y-124022142D01*
X153612714Y-124058428D01*
X153540142Y-124094714D01*
X153467571Y-124094714D01*
X153395000Y-124058428D01*
X153358714Y-124022142D01*
X153322428Y-123949571D01*
X153286142Y-123804428D01*
X153286142Y-123623000D01*
X153322428Y-123477857D01*
X153358714Y-123405285D01*
X153395000Y-123369000D01*
X153467571Y-123332714D01*
G04 #@! TO.C,C11*
X148010142Y-128572142D02*
X147973857Y-128608428D01*
X147865000Y-128644714D01*
X147792428Y-128644714D01*
X147683571Y-128608428D01*
X147611000Y-128535857D01*
X147574714Y-128463285D01*
X147538428Y-128318142D01*
X147538428Y-128209285D01*
X147574714Y-128064142D01*
X147611000Y-127991571D01*
X147683571Y-127919000D01*
X147792428Y-127882714D01*
X147865000Y-127882714D01*
X147973857Y-127919000D01*
X148010142Y-127955285D01*
X148735857Y-128644714D02*
X148300428Y-128644714D01*
X148518142Y-128644714D02*
X148518142Y-127882714D01*
X148445571Y-127991571D01*
X148373000Y-128064142D01*
X148300428Y-128100428D01*
X149461571Y-128644714D02*
X149026142Y-128644714D01*
X149243857Y-128644714D02*
X149243857Y-127882714D01*
X149171285Y-127991571D01*
X149098714Y-128064142D01*
X149026142Y-128100428D01*
G04 #@! TO.C,C12*
X152260142Y-128572142D02*
X152223857Y-128608428D01*
X152115000Y-128644714D01*
X152042428Y-128644714D01*
X151933571Y-128608428D01*
X151861000Y-128535857D01*
X151824714Y-128463285D01*
X151788428Y-128318142D01*
X151788428Y-128209285D01*
X151824714Y-128064142D01*
X151861000Y-127991571D01*
X151933571Y-127919000D01*
X152042428Y-127882714D01*
X152115000Y-127882714D01*
X152223857Y-127919000D01*
X152260142Y-127955285D01*
X152985857Y-128644714D02*
X152550428Y-128644714D01*
X152768142Y-128644714D02*
X152768142Y-127882714D01*
X152695571Y-127991571D01*
X152623000Y-128064142D01*
X152550428Y-128100428D01*
X153276142Y-127955285D02*
X153312428Y-127919000D01*
X153385000Y-127882714D01*
X153566428Y-127882714D01*
X153639000Y-127919000D01*
X153675285Y-127955285D01*
X153711571Y-128027857D01*
X153711571Y-128100428D01*
X153675285Y-128209285D01*
X153239857Y-128644714D01*
X153711571Y-128644714D01*
G04 #@! TD*
M02*
