G04 #@! TF.GenerationSoftware,KiCad,Pcbnew,5.0.2*
G04 #@! TF.CreationDate,2020-03-26T08:27:29+01:00*
G04 #@! TF.ProjectId,cowdin-dcdc,636f7764-696e-42d6-9463-64632e6b6963,1*
G04 #@! TF.SameCoordinates,Original*
G04 #@! TF.FileFunction,Copper,L1,Top*
G04 #@! TF.FilePolarity,Positive*
%FSLAX46Y46*%
G04 Gerber Fmt 4.6, Leading zero omitted, Abs format (unit mm)*
G04 Created by KiCad (PCBNEW 5.0.2) date jeu. 26 mars 2020 08:27:29 CET*
%MOMM*%
%LPD*%
G01*
G04 APERTURE LIST*
G04 #@! TA.AperFunction,NonConductor*
%ADD10C,0.101600*%
G04 #@! TD*
G04 #@! TA.AperFunction,ComponentPad*
%ADD11R,2.540000X2.540000*%
G04 #@! TD*
G04 #@! TA.AperFunction,ComponentPad*
%ADD12C,2.540000*%
G04 #@! TD*
G04 #@! TA.AperFunction,SMDPad,CuDef*
%ADD13R,1.600000X0.300000*%
G04 #@! TD*
G04 #@! TA.AperFunction,SMDPad,CuDef*
%ADD14R,1.570000X1.880000*%
G04 #@! TD*
G04 #@! TA.AperFunction,SMDPad,CuDef*
%ADD15R,2.100000X1.800000*%
G04 #@! TD*
G04 #@! TA.AperFunction,SMDPad,CuDef*
%ADD16R,3.560000X1.780000*%
G04 #@! TD*
G04 #@! TA.AperFunction,SMDPad,CuDef*
%ADD17R,5.300000X2.000000*%
G04 #@! TD*
G04 #@! TA.AperFunction,SMDPad,CuDef*
%ADD18R,0.635000X1.143000*%
G04 #@! TD*
G04 #@! TA.AperFunction,SMDPad,CuDef*
%ADD19R,1.198880X1.198880*%
G04 #@! TD*
G04 #@! TA.AperFunction,SMDPad,CuDef*
%ADD20R,1.198880X3.599180*%
G04 #@! TD*
G04 #@! TA.AperFunction,SMDPad,CuDef*
%ADD21R,0.599440X0.599440*%
G04 #@! TD*
G04 #@! TA.AperFunction,SMDPad,CuDef*
%ADD22R,3.500120X2.400300*%
G04 #@! TD*
G04 #@! TA.AperFunction,SMDPad,CuDef*
%ADD23R,1.524000X2.032000*%
G04 #@! TD*
G04 #@! TA.AperFunction,SMDPad,CuDef*
%ADD24R,1.143000X0.635000*%
G04 #@! TD*
G04 #@! TA.AperFunction,SMDPad,CuDef*
%ADD25R,2.500000X2.500000*%
G04 #@! TD*
G04 #@! TA.AperFunction,ViaPad*
%ADD26C,0.711200*%
G04 #@! TD*
G04 #@! TA.AperFunction,Conductor*
%ADD27C,0.304800*%
G04 #@! TD*
G04 #@! TA.AperFunction,Conductor*
%ADD28C,0.406400*%
G04 #@! TD*
G04 #@! TA.AperFunction,Conductor*
%ADD29C,0.203200*%
G04 #@! TD*
G04 #@! TA.AperFunction,Conductor*
%ADD30C,0.711200*%
G04 #@! TD*
G04 #@! TA.AperFunction,Conductor*
%ADD31C,0.250000*%
G04 #@! TD*
G04 #@! TA.AperFunction,Conductor*
%ADD32C,0.152400*%
G04 #@! TD*
G04 #@! TA.AperFunction,Conductor*
%ADD33C,0.254000*%
G04 #@! TD*
G04 APERTURE END LIST*
D10*
X143682897Y-137522142D02*
X143646611Y-137558428D01*
X143537754Y-137594714D01*
X143465182Y-137594714D01*
X143356325Y-137558428D01*
X143283754Y-137485857D01*
X143247468Y-137413285D01*
X143211182Y-137268142D01*
X143211182Y-137159285D01*
X143247468Y-137014142D01*
X143283754Y-136941571D01*
X143356325Y-136869000D01*
X143465182Y-136832714D01*
X143537754Y-136832714D01*
X143646611Y-136869000D01*
X143682897Y-136905285D01*
X144444897Y-137522142D02*
X144408611Y-137558428D01*
X144299754Y-137594714D01*
X144227182Y-137594714D01*
X144118325Y-137558428D01*
X144045754Y-137485857D01*
X144009468Y-137413285D01*
X143973182Y-137268142D01*
X143973182Y-137159285D01*
X144009468Y-137014142D01*
X144045754Y-136941571D01*
X144118325Y-136869000D01*
X144227182Y-136832714D01*
X144299754Y-136832714D01*
X144408611Y-136869000D01*
X144444897Y-136905285D01*
X144771468Y-137304428D02*
X145352040Y-137304428D01*
X145714897Y-137594714D02*
X145714897Y-136832714D01*
X145714897Y-137123000D02*
X145787468Y-137086714D01*
X145932611Y-137086714D01*
X146005182Y-137123000D01*
X146041468Y-137159285D01*
X146077754Y-137231857D01*
X146077754Y-137449571D01*
X146041468Y-137522142D01*
X146005182Y-137558428D01*
X145932611Y-137594714D01*
X145787468Y-137594714D01*
X145714897Y-137558428D01*
X146331754Y-137086714D02*
X146513182Y-137594714D01*
X146694611Y-137086714D02*
X146513182Y-137594714D01*
X146440611Y-137776142D01*
X146404325Y-137812428D01*
X146331754Y-137848714D01*
X146984897Y-137304428D02*
X147565468Y-137304428D01*
X147892040Y-137558428D02*
X148000897Y-137594714D01*
X148182325Y-137594714D01*
X148254897Y-137558428D01*
X148291182Y-137522142D01*
X148327468Y-137449571D01*
X148327468Y-137377000D01*
X148291182Y-137304428D01*
X148254897Y-137268142D01*
X148182325Y-137231857D01*
X148037182Y-137195571D01*
X147964611Y-137159285D01*
X147928325Y-137123000D01*
X147892040Y-137050428D01*
X147892040Y-136977857D01*
X147928325Y-136905285D01*
X147964611Y-136869000D01*
X148037182Y-136832714D01*
X148218611Y-136832714D01*
X148327468Y-136869000D01*
X148617754Y-137377000D02*
X148980611Y-137377000D01*
X148545182Y-137594714D02*
X148799182Y-136832714D01*
X149053182Y-137594714D01*
X143211182Y-136127000D02*
X143574040Y-136127000D01*
X143138611Y-136344714D02*
X143392611Y-135582714D01*
X143646611Y-136344714D01*
X144227182Y-135836714D02*
X144227182Y-136453571D01*
X144190897Y-136526142D01*
X144154611Y-136562428D01*
X144082040Y-136598714D01*
X143973182Y-136598714D01*
X143900611Y-136562428D01*
X144227182Y-136308428D02*
X144154611Y-136344714D01*
X144009468Y-136344714D01*
X143936897Y-136308428D01*
X143900611Y-136272142D01*
X143864325Y-136199571D01*
X143864325Y-135981857D01*
X143900611Y-135909285D01*
X143936897Y-135873000D01*
X144009468Y-135836714D01*
X144154611Y-135836714D01*
X144227182Y-135873000D01*
X144590040Y-136344714D02*
X144590040Y-135836714D01*
X144590040Y-135582714D02*
X144553754Y-135619000D01*
X144590040Y-135655285D01*
X144626325Y-135619000D01*
X144590040Y-135582714D01*
X144590040Y-135655285D01*
X145061754Y-136344714D02*
X144989182Y-136308428D01*
X144952897Y-136235857D01*
X144952897Y-135582714D01*
X145678611Y-136344714D02*
X145678611Y-135945571D01*
X145642325Y-135873000D01*
X145569754Y-135836714D01*
X145424611Y-135836714D01*
X145352040Y-135873000D01*
X145678611Y-136308428D02*
X145606040Y-136344714D01*
X145424611Y-136344714D01*
X145352040Y-136308428D01*
X145315754Y-136235857D01*
X145315754Y-136163285D01*
X145352040Y-136090714D01*
X145424611Y-136054428D01*
X145606040Y-136054428D01*
X145678611Y-136018142D01*
X146368040Y-136308428D02*
X146295468Y-136344714D01*
X146150325Y-136344714D01*
X146077754Y-136308428D01*
X146041468Y-136272142D01*
X146005182Y-136199571D01*
X146005182Y-135981857D01*
X146041468Y-135909285D01*
X146077754Y-135873000D01*
X146150325Y-135836714D01*
X146295468Y-135836714D01*
X146368040Y-135873000D01*
X146694611Y-136344714D02*
X146694611Y-135582714D01*
X146767182Y-136054428D02*
X146984897Y-136344714D01*
X146984897Y-135836714D02*
X146694611Y-136127000D01*
X148215857Y-135444714D02*
X148215857Y-134936714D01*
X148215857Y-135081857D02*
X148252142Y-135009285D01*
X148288428Y-134973000D01*
X148361000Y-134936714D01*
X148433571Y-134936714D01*
X148977857Y-135408428D02*
X148905285Y-135444714D01*
X148760142Y-135444714D01*
X148687571Y-135408428D01*
X148651285Y-135335857D01*
X148651285Y-135045571D01*
X148687571Y-134973000D01*
X148760142Y-134936714D01*
X148905285Y-134936714D01*
X148977857Y-134973000D01*
X149014142Y-135045571D01*
X149014142Y-135118142D01*
X148651285Y-135190714D01*
X149268142Y-134936714D02*
X149449571Y-135444714D01*
X149631000Y-134936714D01*
X150320428Y-135444714D02*
X149885000Y-135444714D01*
X150102714Y-135444714D02*
X150102714Y-134682714D01*
X150030142Y-134791571D01*
X149957571Y-134864142D01*
X149885000Y-134900428D01*
X143502428Y-134308428D02*
X143429857Y-134344714D01*
X143284714Y-134344714D01*
X143212142Y-134308428D01*
X143175857Y-134272142D01*
X143139571Y-134199571D01*
X143139571Y-133981857D01*
X143175857Y-133909285D01*
X143212142Y-133873000D01*
X143284714Y-133836714D01*
X143429857Y-133836714D01*
X143502428Y-133873000D01*
X143937857Y-134344714D02*
X143865285Y-134308428D01*
X143829000Y-134272142D01*
X143792714Y-134199571D01*
X143792714Y-133981857D01*
X143829000Y-133909285D01*
X143865285Y-133873000D01*
X143937857Y-133836714D01*
X144046714Y-133836714D01*
X144119285Y-133873000D01*
X144155571Y-133909285D01*
X144191857Y-133981857D01*
X144191857Y-134199571D01*
X144155571Y-134272142D01*
X144119285Y-134308428D01*
X144046714Y-134344714D01*
X143937857Y-134344714D01*
X144445857Y-133836714D02*
X144591000Y-134344714D01*
X144736142Y-133981857D01*
X144881285Y-134344714D01*
X145026428Y-133836714D01*
X145643285Y-134344714D02*
X145643285Y-133582714D01*
X145643285Y-134308428D02*
X145570714Y-134344714D01*
X145425571Y-134344714D01*
X145353000Y-134308428D01*
X145316714Y-134272142D01*
X145280428Y-134199571D01*
X145280428Y-133981857D01*
X145316714Y-133909285D01*
X145353000Y-133873000D01*
X145425571Y-133836714D01*
X145570714Y-133836714D01*
X145643285Y-133873000D01*
X146006142Y-134344714D02*
X146006142Y-133836714D01*
X146006142Y-133582714D02*
X145969857Y-133619000D01*
X146006142Y-133655285D01*
X146042428Y-133619000D01*
X146006142Y-133582714D01*
X146006142Y-133655285D01*
X146369000Y-133836714D02*
X146369000Y-134344714D01*
X146369000Y-133909285D02*
X146405285Y-133873000D01*
X146477857Y-133836714D01*
X146586714Y-133836714D01*
X146659285Y-133873000D01*
X146695571Y-133945571D01*
X146695571Y-134344714D01*
X147058428Y-134054428D02*
X147639000Y-134054428D01*
X148328428Y-134344714D02*
X148328428Y-133582714D01*
X148328428Y-134308428D02*
X148255857Y-134344714D01*
X148110714Y-134344714D01*
X148038142Y-134308428D01*
X148001857Y-134272142D01*
X147965571Y-134199571D01*
X147965571Y-133981857D01*
X148001857Y-133909285D01*
X148038142Y-133873000D01*
X148110714Y-133836714D01*
X148255857Y-133836714D01*
X148328428Y-133873000D01*
X149017857Y-134308428D02*
X148945285Y-134344714D01*
X148800142Y-134344714D01*
X148727571Y-134308428D01*
X148691285Y-134272142D01*
X148655000Y-134199571D01*
X148655000Y-133981857D01*
X148691285Y-133909285D01*
X148727571Y-133873000D01*
X148800142Y-133836714D01*
X148945285Y-133836714D01*
X149017857Y-133873000D01*
X149671000Y-134344714D02*
X149671000Y-133582714D01*
X149671000Y-134308428D02*
X149598428Y-134344714D01*
X149453285Y-134344714D01*
X149380714Y-134308428D01*
X149344428Y-134272142D01*
X149308142Y-134199571D01*
X149308142Y-133981857D01*
X149344428Y-133909285D01*
X149380714Y-133873000D01*
X149453285Y-133836714D01*
X149598428Y-133836714D01*
X149671000Y-133873000D01*
X150360428Y-134308428D02*
X150287857Y-134344714D01*
X150142714Y-134344714D01*
X150070142Y-134308428D01*
X150033857Y-134272142D01*
X149997571Y-134199571D01*
X149997571Y-133981857D01*
X150033857Y-133909285D01*
X150070142Y-133873000D01*
X150142714Y-133836714D01*
X150287857Y-133836714D01*
X150360428Y-133873000D01*
D11*
G04 #@! TO.P,P1,1*
G04 #@! TO.N,Net-(P1-Pad1)*
X143420000Y-66830000D03*
D12*
G04 #@! TO.P,P1,3*
G04 #@! TO.N,Net-(F1-Pad1)*
X153580000Y-66830000D03*
G04 #@! TO.P,P1,2*
G04 #@! TO.N,Net-(P1-Pad2)*
X148500000Y-66830000D03*
G04 #@! TD*
G04 #@! TO.P,P2,2*
G04 #@! TO.N,Net-(P2-Pad2)*
X148500000Y-143170000D03*
G04 #@! TO.P,P2,3*
G04 #@! TO.N,VOut*
X153580000Y-143170000D03*
D11*
G04 #@! TO.P,P2,1*
G04 #@! TO.N,GND*
X143420000Y-143170000D03*
G04 #@! TD*
D13*
G04 #@! TO.P,U1,1*
G04 #@! TO.N,Net-(C4-Pad1)*
X151100000Y-101000000D03*
G04 #@! TO.P,U1,2*
G04 #@! TO.N,VIn*
X151100000Y-100500000D03*
G04 #@! TO.P,U1,3*
G04 #@! TO.N,Net-(U1-Pad3)*
X151100000Y-100000000D03*
G04 #@! TO.P,U1,4*
G04 #@! TO.N,Net-(C3-Pad1)*
X151100000Y-99500000D03*
G04 #@! TO.P,U1,5*
G04 #@! TO.N,Net-(R3-Pad1)*
X151100000Y-99000000D03*
G04 #@! TO.P,U1,6*
G04 #@! TO.N,Net-(U1-Pad6)*
X146900000Y-99000000D03*
G04 #@! TO.P,U1,7*
G04 #@! TO.N,Net-(R5-Pad2)*
X146900000Y-99500000D03*
G04 #@! TO.P,U1,8*
G04 #@! TO.N,Net-(C5-Pad1)*
X146900000Y-100000000D03*
G04 #@! TO.P,U1,9*
G04 #@! TO.N,GND*
X146900000Y-100500000D03*
G04 #@! TO.P,U1,10*
G04 #@! TO.N,/PH_SW*
X146900000Y-101000000D03*
D14*
G04 #@! TO.P,U1,PAD*
G04 #@! TO.N,GND*
X149000000Y-100000000D03*
G04 #@! TD*
D15*
G04 #@! TO.P,D2,1*
G04 #@! TO.N,GND*
X151050000Y-103250000D03*
G04 #@! TO.P,D2,2*
G04 #@! TO.N,/PH_SW*
X146650000Y-103250000D03*
G04 #@! TD*
D16*
G04 #@! TO.P,L1,1*
G04 #@! TO.N,/PH_SW*
X148500000Y-106710000D03*
G04 #@! TO.P,L1,2*
G04 #@! TO.N,VOut*
X148500000Y-116110000D03*
G04 #@! TD*
D17*
G04 #@! TO.P,F1,2*
G04 #@! TO.N,VIn*
X152500000Y-81400000D03*
G04 #@! TO.P,F1,1*
G04 #@! TO.N,Net-(F1-Pad1)*
X152500000Y-76600000D03*
G04 #@! TD*
D18*
G04 #@! TO.P,R1,2*
G04 #@! TO.N,Net-(D1-Pad2)*
X147238000Y-83500000D03*
G04 #@! TO.P,R1,1*
G04 #@! TO.N,VIn*
X148762000Y-83500000D03*
G04 #@! TD*
G04 #@! TO.P,R2,1*
G04 #@! TO.N,Net-(D1-Pad2)*
X145262000Y-85250000D03*
G04 #@! TO.P,R2,2*
G04 #@! TO.N,GND*
X143738000Y-85250000D03*
G04 #@! TD*
G04 #@! TO.P,R3,1*
G04 #@! TO.N,Net-(R3-Pad1)*
X150512000Y-97500000D03*
G04 #@! TO.P,R3,2*
G04 #@! TO.N,GND*
X148988000Y-97500000D03*
G04 #@! TD*
D19*
G04 #@! TO.P,Q1,2*
G04 #@! TO.N,N/C*
X148550540Y-79000000D03*
G04 #@! TO.P,Q1,1*
G04 #@! TO.N,Net-(D1-Pad2)*
X148550540Y-81301240D03*
G04 #@! TO.P,Q1,3*
G04 #@! TO.N,GND*
X148550540Y-76698760D03*
D20*
G04 #@! TO.P,Q1,4*
G04 #@! TO.N,Net-(P1-Pad1)*
X142449460Y-79000000D03*
G04 #@! TD*
D21*
G04 #@! TO.P,D1,1*
G04 #@! TO.N,GND*
X143349380Y-83500000D03*
G04 #@! TO.P,D1,2*
G04 #@! TO.N,Net-(D1-Pad2)*
X145650620Y-83500000D03*
G04 #@! TD*
D22*
G04 #@! TO.P,C1,1*
G04 #@! TO.N,VIn*
X151751200Y-90500000D03*
G04 #@! TO.P,C1,2*
G04 #@! TO.N,GND*
X145248800Y-90500000D03*
G04 #@! TD*
D23*
G04 #@! TO.P,C2,1*
G04 #@! TO.N,VIn*
X150849000Y-84750000D03*
G04 #@! TO.P,C2,2*
G04 #@! TO.N,GND*
X154151000Y-84750000D03*
G04 #@! TD*
D18*
G04 #@! TO.P,C3,1*
G04 #@! TO.N,Net-(C3-Pad1)*
X150512000Y-96000000D03*
G04 #@! TO.P,C3,2*
G04 #@! TO.N,GND*
X148988000Y-96000000D03*
G04 #@! TD*
D24*
G04 #@! TO.P,C4,2*
G04 #@! TO.N,/PH_SW*
X153750000Y-104012000D03*
G04 #@! TO.P,C4,1*
G04 #@! TO.N,Net-(C4-Pad1)*
X153750000Y-102488000D03*
G04 #@! TD*
G04 #@! TO.P,C5,1*
G04 #@! TO.N,Net-(C5-Pad1)*
X144750000Y-99238000D03*
G04 #@! TO.P,C5,2*
G04 #@! TO.N,GND*
X144750000Y-100762000D03*
G04 #@! TD*
G04 #@! TO.P,C6,2*
G04 #@! TO.N,GND*
X143250000Y-100762000D03*
G04 #@! TO.P,C6,1*
G04 #@! TO.N,Net-(C6-Pad1)*
X143250000Y-99238000D03*
G04 #@! TD*
D18*
G04 #@! TO.P,R4,1*
G04 #@! TO.N,Net-(C5-Pad1)*
X144762000Y-98000000D03*
G04 #@! TO.P,R4,2*
G04 #@! TO.N,Net-(C6-Pad1)*
X143238000Y-98000000D03*
G04 #@! TD*
G04 #@! TO.P,R5,2*
G04 #@! TO.N,Net-(R5-Pad2)*
X143088000Y-105250000D03*
G04 #@! TO.P,R5,1*
G04 #@! TO.N,VOut*
X144612000Y-105250000D03*
G04 #@! TD*
G04 #@! TO.P,R6,1*
G04 #@! TO.N,GND*
X144612000Y-103500000D03*
G04 #@! TO.P,R6,2*
G04 #@! TO.N,Net-(R5-Pad2)*
X143088000Y-103500000D03*
G04 #@! TD*
G04 #@! TO.P,C7,2*
G04 #@! TO.N,GND*
X153262000Y-117750000D03*
G04 #@! TO.P,C7,1*
G04 #@! TO.N,VOut*
X151738000Y-117750000D03*
G04 #@! TD*
D25*
G04 #@! TO.P,C8,1*
G04 #@! TO.N,VOut*
X152150000Y-121000000D03*
G04 #@! TO.P,C8,2*
G04 #@! TO.N,GND*
X144850000Y-121000000D03*
G04 #@! TD*
D18*
G04 #@! TO.P,C9,1*
G04 #@! TO.N,VOut*
X149262000Y-125000000D03*
G04 #@! TO.P,C9,2*
G04 #@! TO.N,GND*
X147738000Y-125000000D03*
G04 #@! TD*
G04 #@! TO.P,C10,1*
G04 #@! TO.N,VOut*
X151998000Y-125000000D03*
G04 #@! TO.P,C10,2*
G04 #@! TO.N,GND*
X153522000Y-125000000D03*
G04 #@! TD*
G04 #@! TO.P,C11,2*
G04 #@! TO.N,GND*
X147738000Y-127000000D03*
G04 #@! TO.P,C11,1*
G04 #@! TO.N,VOut*
X149262000Y-127000000D03*
G04 #@! TD*
G04 #@! TO.P,C12,1*
G04 #@! TO.N,VOut*
X151988000Y-127000000D03*
G04 #@! TO.P,C12,2*
G04 #@! TO.N,GND*
X153512000Y-127000000D03*
G04 #@! TD*
D25*
G04 #@! TO.P,C13,1*
G04 #@! TO.N,VOut*
X152150000Y-131000000D03*
G04 #@! TO.P,C13,2*
G04 #@! TO.N,GND*
X144850000Y-131000000D03*
G04 #@! TD*
D26*
G04 #@! TO.N,GND*
X147250000Y-76700000D03*
X146250000Y-76700000D03*
X147250000Y-75700000D03*
X146250000Y-75700000D03*
X142100000Y-83000000D03*
X142100000Y-85000000D03*
X142100000Y-87000000D03*
X142100000Y-89000000D03*
X142100000Y-91000000D03*
X142100000Y-93000000D03*
X154150000Y-86400000D03*
X153250000Y-86400000D03*
X152750000Y-84750000D03*
X152750000Y-85650000D03*
X148000000Y-97500000D03*
X148000000Y-96000000D03*
X152500000Y-103250000D03*
X152500000Y-102500000D03*
X152500000Y-104000000D03*
X149250000Y-103250000D03*
X149250000Y-102500000D03*
X149000000Y-101500000D03*
X149000000Y-98500000D03*
X154900000Y-105000000D03*
X154900000Y-103000000D03*
X142100000Y-95000000D03*
X142100000Y-97000000D03*
X142100000Y-99000000D03*
X142100000Y-101000000D03*
X142100000Y-103000000D03*
X142100000Y-105000000D03*
X154900000Y-101000000D03*
X154900000Y-99000000D03*
X154900000Y-97000000D03*
X154900000Y-95000000D03*
X154900000Y-93000000D03*
X144750000Y-102000000D03*
X154900000Y-91000000D03*
X154900000Y-89000000D03*
X154900000Y-87000000D03*
X142100000Y-107000000D03*
X142100000Y-109000000D03*
X142100000Y-111000000D03*
X154900000Y-107000000D03*
X154900000Y-109000000D03*
X154900000Y-111000000D03*
X154900000Y-113000000D03*
X154900000Y-115000000D03*
X154900000Y-117000000D03*
X154900000Y-119000000D03*
X154900000Y-121000000D03*
X154900000Y-123000000D03*
X154900000Y-125000000D03*
X154900000Y-127000000D03*
X154900000Y-129000000D03*
X154900000Y-131000000D03*
X154900000Y-133000000D03*
X154900000Y-135000000D03*
X154900000Y-137000000D03*
X154900000Y-139000000D03*
X146750000Y-127000000D03*
X146750000Y-125000000D03*
X142100000Y-121000000D03*
X142100000Y-131000000D03*
X142100000Y-113000000D03*
X142100000Y-115000000D03*
X142100000Y-117000000D03*
X142100000Y-119000000D03*
X142100000Y-123000000D03*
X142100000Y-127000000D03*
X142100000Y-129000000D03*
X142100000Y-132990000D03*
X142100000Y-135000000D03*
X142100000Y-137000000D03*
X142100000Y-139000000D03*
X142100000Y-125000000D03*
X144420000Y-125000000D03*
X144420000Y-127000000D03*
G04 #@! TO.N,Net-(R5-Pad2)*
X146000000Y-98000000D03*
X143090000Y-102000000D03*
G04 #@! TD*
D27*
G04 #@! TO.N,GND*
X147250000Y-76700000D02*
X148549300Y-76700000D01*
X148549300Y-76700000D02*
X148550540Y-76698760D01*
X147250000Y-76700000D02*
X146250000Y-76700000D01*
X147250000Y-76700000D02*
X147250000Y-75700000D01*
X147250000Y-75700000D02*
X146250000Y-75700000D01*
D28*
X143349380Y-83500000D02*
X142600000Y-83500000D01*
X142600000Y-83500000D02*
X142100000Y-83000000D01*
X143738000Y-85250000D02*
X142970000Y-85250000D01*
X142970000Y-85250000D02*
X142720000Y-85000000D01*
X142720000Y-85000000D02*
X142100000Y-85000000D01*
X142100000Y-91000000D02*
X142680000Y-91000000D01*
X142680000Y-91000000D02*
X143180000Y-90500000D01*
X143180000Y-90500000D02*
X145248800Y-90500000D01*
X154150000Y-86400000D02*
X154150000Y-84751000D01*
X154150000Y-84751000D02*
X154151000Y-84750000D01*
X154150000Y-86400000D02*
X153250000Y-86400000D01*
X154151000Y-84750000D02*
X152750000Y-84750000D01*
X152750000Y-84750000D02*
X152750000Y-85650000D01*
X148988000Y-97500000D02*
X148000000Y-97500000D01*
X148988000Y-96000000D02*
X148000000Y-96000000D01*
D29*
X150950000Y-103250000D02*
X152500000Y-103250000D01*
X152500000Y-103250000D02*
X152500000Y-102500000D01*
X152500000Y-103250000D02*
X152500000Y-104000000D01*
X150950000Y-103250000D02*
X149250000Y-103250000D01*
X149250000Y-103250000D02*
X149250000Y-102500000D01*
X149250000Y-102500000D02*
X149250000Y-102100000D01*
X149250000Y-102100000D02*
X149000000Y-101850000D01*
X149000000Y-101850000D02*
X149000000Y-101500000D01*
X149000000Y-100000000D02*
X149000000Y-101500000D01*
X146900000Y-100500000D02*
X148500000Y-100500000D01*
X148500000Y-100500000D02*
X149000000Y-100000000D01*
D28*
X149000000Y-100000000D02*
X149000000Y-98500000D01*
D29*
X146900000Y-100500000D02*
X145820000Y-100500000D01*
D27*
X145820000Y-100500000D02*
X145558000Y-100762000D01*
X145558000Y-100762000D02*
X144750000Y-100762000D01*
D28*
X142100000Y-101000000D02*
X142390000Y-101000000D01*
X142390000Y-101000000D02*
X142628000Y-100762000D01*
X142628000Y-100762000D02*
X143250000Y-100762000D01*
X143250000Y-100762000D02*
X144750000Y-100762000D01*
X144750000Y-100762000D02*
X144750000Y-102000000D01*
X144612000Y-103500000D02*
X144612000Y-102638000D01*
X144612000Y-102638000D02*
X144750000Y-102500000D01*
X144750000Y-102500000D02*
X144750000Y-102000000D01*
X153262000Y-117750000D02*
X154150000Y-117750000D01*
X154150000Y-117750000D02*
X154900000Y-117000000D01*
X154900000Y-127000000D02*
X153512000Y-127000000D01*
X147738000Y-127000000D02*
X146750000Y-127000000D01*
X147738000Y-125000000D02*
X146750000Y-125000000D01*
X154900000Y-125000000D02*
X153522000Y-125000000D01*
X142100000Y-121000000D02*
X144850000Y-121000000D01*
X142100000Y-131000000D02*
X144850000Y-131000000D01*
D30*
X142100000Y-83000000D02*
X142100000Y-85000000D01*
X142100000Y-85000000D02*
X142100000Y-87000000D01*
X142100000Y-87000000D02*
X142100000Y-89000000D01*
X142100000Y-89000000D02*
X142100000Y-91000000D01*
X142100000Y-91000000D02*
X142100000Y-93000000D01*
X142100000Y-93000000D02*
X142100000Y-95000000D01*
X142100000Y-95000000D02*
X142100000Y-97000000D01*
X142100000Y-97000000D02*
X142100000Y-99000000D01*
X142100000Y-99000000D02*
X142100000Y-101000000D01*
X142100000Y-101000000D02*
X142100000Y-103000000D01*
X142100000Y-103000000D02*
X142100000Y-105000000D01*
X142100000Y-105000000D02*
X142100000Y-107000000D01*
X142100000Y-107000000D02*
X142100000Y-109000000D01*
X142100000Y-109000000D02*
X142100000Y-111000000D01*
X142100000Y-111000000D02*
X142100000Y-113000000D01*
X142100000Y-113000000D02*
X142100000Y-115000000D01*
X142100000Y-115000000D02*
X142100000Y-117000000D01*
X142100000Y-117000000D02*
X142100000Y-119000000D01*
X142100000Y-119000000D02*
X142100000Y-121000000D01*
X142100000Y-121000000D02*
X142100000Y-123000000D01*
X142100000Y-123000000D02*
X142100000Y-125000000D01*
X142100000Y-125000000D02*
X142100000Y-127000000D01*
X142100000Y-127000000D02*
X142100000Y-129000000D01*
X142100000Y-129000000D02*
X142100000Y-131000000D01*
X142100000Y-131000000D02*
X142100000Y-132990000D01*
X142100000Y-132990000D02*
X142100000Y-135000000D01*
X142100000Y-135000000D02*
X142100000Y-137000000D01*
X142100000Y-137000000D02*
X142100000Y-139000000D01*
D28*
X142100000Y-125000000D02*
X144420000Y-125000000D01*
X142100000Y-127000000D02*
X144420000Y-127000000D01*
X144420000Y-125000000D02*
X146750000Y-125000000D01*
X144420000Y-127000000D02*
X146750000Y-127000000D01*
X144420000Y-127000000D02*
X144420000Y-130570000D01*
X144420000Y-130570000D02*
X144850000Y-131000000D01*
X144420000Y-125000000D02*
X144420000Y-121430000D01*
X144420000Y-121430000D02*
X144850000Y-121000000D01*
X144420000Y-127000000D02*
X144420000Y-125000000D01*
X146750000Y-127000000D02*
X146750000Y-125000000D01*
D30*
X154900000Y-87000000D02*
X154900000Y-89000000D01*
X154900000Y-89000000D02*
X154900000Y-91000000D01*
X154900000Y-91000000D02*
X154900000Y-93000000D01*
X154900000Y-93000000D02*
X154900000Y-95000000D01*
X154900000Y-95000000D02*
X154900000Y-97000000D01*
X154900000Y-97000000D02*
X154900000Y-99000000D01*
X154900000Y-99000000D02*
X154900000Y-101000000D01*
X154900000Y-101000000D02*
X154900000Y-103000000D01*
X154900000Y-103000000D02*
X154900000Y-105000000D01*
X154900000Y-105000000D02*
X154900000Y-107000000D01*
X154900000Y-107000000D02*
X154900000Y-109000000D01*
X154900000Y-109000000D02*
X154900000Y-111000000D01*
X154900000Y-111000000D02*
X154900000Y-113000000D01*
X154900000Y-113000000D02*
X154900000Y-115000000D01*
X154900000Y-115000000D02*
X154900000Y-117000000D01*
X154900000Y-117000000D02*
X154900000Y-119000000D01*
X154900000Y-119000000D02*
X154900000Y-121000000D01*
X154900000Y-121000000D02*
X154900000Y-123000000D01*
X154900000Y-123000000D02*
X154900000Y-125000000D01*
X154900000Y-125000000D02*
X154900000Y-127000000D01*
X154900000Y-127000000D02*
X154900000Y-129000000D01*
X154900000Y-129000000D02*
X154900000Y-131000000D01*
X154900000Y-131000000D02*
X154900000Y-133000000D01*
X154900000Y-133000000D02*
X154900000Y-135000000D01*
X154900000Y-135000000D02*
X154900000Y-137000000D01*
X154900000Y-137000000D02*
X154900000Y-139000000D01*
D31*
G04 #@! TO.N,VIn*
X148762000Y-83500000D02*
X148762000Y-84402000D01*
X148762000Y-84402000D02*
X149110000Y-84750000D01*
X149110000Y-84750000D02*
X150849000Y-84750000D01*
D28*
X150849000Y-84750000D02*
X150849000Y-87669000D01*
X150849000Y-87669000D02*
X151751200Y-88571200D01*
X151751200Y-88571200D02*
X151751200Y-90500000D01*
X150849000Y-84750000D02*
X150849000Y-83051000D01*
X150849000Y-83051000D02*
X152500000Y-81400000D01*
X153810000Y-94940000D02*
X153810000Y-99590000D01*
X153810000Y-99590000D02*
X152900000Y-100500000D01*
X152900000Y-100500000D02*
X152250000Y-100500000D01*
D29*
X152250000Y-100500000D02*
X151100000Y-100500000D01*
D28*
X151751200Y-90500000D02*
X151751200Y-92881200D01*
X151751200Y-92881200D02*
X153810000Y-94940000D01*
D29*
G04 #@! TO.N,Net-(C3-Pad1)*
X151100000Y-99500000D02*
X152250000Y-99500000D01*
X152250000Y-99500000D02*
X152720000Y-99030000D01*
X152720000Y-99030000D02*
X152720000Y-97410000D01*
X152720000Y-97410000D02*
X151310000Y-96000000D01*
X151310000Y-96000000D02*
X150512000Y-96000000D01*
D28*
G04 #@! TO.N,Net-(D1-Pad2)*
X145262000Y-85250000D02*
X145262000Y-83888620D01*
X145262000Y-83888620D02*
X145650620Y-83500000D01*
X145650620Y-83500000D02*
X147238000Y-83500000D01*
X148550540Y-81301240D02*
X146748760Y-81301240D01*
X146748760Y-81301240D02*
X145650620Y-82399380D01*
X145650620Y-82399380D02*
X145650620Y-83500000D01*
G04 #@! TO.N,Net-(F1-Pad1)*
X153580000Y-66830000D02*
X153580000Y-72760000D01*
X153580000Y-72760000D02*
X152500000Y-73840000D01*
X152500000Y-73840000D02*
X152500000Y-76600000D01*
G04 #@! TO.N,Net-(P1-Pad1)*
X143420000Y-66830000D02*
X143420000Y-74440000D01*
X143420000Y-74440000D02*
X142449460Y-75410540D01*
X142449460Y-75410540D02*
X142449460Y-79000000D01*
D29*
G04 #@! TO.N,Net-(R3-Pad1)*
X151100000Y-99000000D02*
X152140000Y-99000000D01*
X152140000Y-99000000D02*
X152290000Y-98850000D01*
X152290000Y-98850000D02*
X152290000Y-98040000D01*
X152290000Y-98040000D02*
X151750000Y-97500000D01*
X151750000Y-97500000D02*
X150512000Y-97500000D01*
D28*
G04 #@! TO.N,Net-(C4-Pad1)*
X153750000Y-102488000D02*
X153750000Y-101880000D01*
X153750000Y-101880000D02*
X152990000Y-101120000D01*
X152990000Y-101120000D02*
X152310000Y-101120000D01*
D29*
X151100000Y-101000000D02*
X152050000Y-101000000D01*
X152050000Y-101000000D02*
X152170000Y-101120000D01*
X152170000Y-101120000D02*
X152310000Y-101120000D01*
G04 #@! TO.N,/PH_SW*
X146900000Y-101000000D02*
X146900000Y-101580000D01*
X146900000Y-101580000D02*
X146550000Y-101930000D01*
X146550000Y-101930000D02*
X146550000Y-103250000D01*
D28*
X147060000Y-105020000D02*
X146550000Y-104510000D01*
X146550000Y-104510000D02*
X146550000Y-103250000D01*
X151760000Y-106710000D02*
X153750000Y-104720000D01*
X153750000Y-104720000D02*
X153750000Y-104012000D01*
X151760000Y-106710000D02*
X148500000Y-106710000D01*
X148500000Y-106710000D02*
X148500000Y-105420000D01*
X148500000Y-105420000D02*
X148100000Y-105020000D01*
X148100000Y-105020000D02*
X147060000Y-105020000D01*
D27*
G04 #@! TO.N,Net-(C5-Pad1)*
X145512000Y-100000000D02*
X144750000Y-99238000D01*
X145512000Y-100000000D02*
X145750000Y-100000000D01*
D29*
X145750000Y-100000000D02*
X146900000Y-100000000D01*
D28*
X144762000Y-98000000D02*
X144762000Y-99226000D01*
X144762000Y-99226000D02*
X144750000Y-99238000D01*
G04 #@! TO.N,Net-(C6-Pad1)*
X143238000Y-98000000D02*
X143238000Y-99226000D01*
X143238000Y-99226000D02*
X143250000Y-99238000D01*
D29*
G04 #@! TO.N,Net-(R5-Pad2)*
X146900000Y-99500000D02*
X145880000Y-99500000D01*
X145880000Y-99500000D02*
X145710000Y-99330000D01*
X145710000Y-99330000D02*
X145710000Y-98770000D01*
X146000000Y-98480000D02*
X146000000Y-98000000D01*
X145710000Y-98770000D02*
X146000000Y-98480000D01*
D28*
X143088000Y-105250000D02*
X143088000Y-103500000D01*
X143088000Y-103500000D02*
X143088000Y-102002000D01*
X143088000Y-102002000D02*
X143090000Y-102000000D01*
G04 #@! TO.N,VOut*
X144612000Y-105250000D02*
X144612000Y-113112000D01*
X144612000Y-113112000D02*
X147610000Y-116110000D01*
X147610000Y-116110000D02*
X148500000Y-116110000D01*
X148500000Y-116110000D02*
X148500000Y-117360000D01*
X148500000Y-117360000D02*
X149355000Y-118215000D01*
X149355000Y-118215000D02*
X152140000Y-121000000D01*
X152140000Y-121000000D02*
X152150000Y-121000000D01*
X151738000Y-117750000D02*
X149820000Y-117750000D01*
X149820000Y-117750000D02*
X149355000Y-118215000D01*
X152140000Y-121010000D02*
X152150000Y-121000000D01*
X150650000Y-122500000D02*
X152150000Y-121000000D01*
X151988000Y-127000000D02*
X150650000Y-127000000D01*
X150650000Y-127000000D02*
X149262000Y-127000000D01*
X151998000Y-125000000D02*
X150650000Y-125000000D01*
X150650000Y-122500000D02*
X150650000Y-125000000D01*
X150650000Y-125000000D02*
X150650000Y-127000000D01*
X153580000Y-143170000D02*
X153580000Y-140570000D01*
X153580000Y-140570000D02*
X152150000Y-139140000D01*
X152150000Y-139140000D02*
X152150000Y-131000000D01*
X149262000Y-125000000D02*
X150650000Y-125000000D01*
X150650000Y-127000000D02*
X150650000Y-127860000D01*
X150650000Y-127860000D02*
X152150000Y-129360000D01*
X152150000Y-129360000D02*
X152150000Y-131000000D01*
G04 #@! TD*
D32*
G04 #@! TO.N,VIn*
G36*
X152673800Y-82968436D02*
X151946118Y-83696118D01*
X151929600Y-83720840D01*
X151923800Y-83750000D01*
X151923800Y-88000000D01*
X151929600Y-88029160D01*
X151951218Y-88058538D01*
X153423800Y-89285690D01*
X153423800Y-92000000D01*
X153429600Y-92029160D01*
X153446118Y-92053882D01*
X154173800Y-92781564D01*
X154173800Y-99718436D01*
X153268436Y-100623800D01*
X152326200Y-100623800D01*
X152326200Y-100330133D01*
X153055591Y-99552116D01*
X153071303Y-99526876D01*
X153076200Y-99500000D01*
X153076200Y-99175796D01*
X153097800Y-99067207D01*
X153097800Y-99067203D01*
X153105200Y-99030001D01*
X153097800Y-98992799D01*
X153097800Y-97447201D01*
X153105200Y-97409999D01*
X153097800Y-97372797D01*
X153097800Y-97372793D01*
X153076200Y-97264204D01*
X153076200Y-95000000D01*
X153070400Y-94970840D01*
X153053882Y-94946118D01*
X150076200Y-91968436D01*
X150076200Y-83750000D01*
X150070400Y-83720840D01*
X150053882Y-83696118D01*
X149926200Y-83568436D01*
X149926200Y-80476200D01*
X152673800Y-80476200D01*
X152673800Y-82968436D01*
X152673800Y-82968436D01*
G37*
X152673800Y-82968436D02*
X151946118Y-83696118D01*
X151929600Y-83720840D01*
X151923800Y-83750000D01*
X151923800Y-88000000D01*
X151929600Y-88029160D01*
X151951218Y-88058538D01*
X153423800Y-89285690D01*
X153423800Y-92000000D01*
X153429600Y-92029160D01*
X153446118Y-92053882D01*
X154173800Y-92781564D01*
X154173800Y-99718436D01*
X153268436Y-100623800D01*
X152326200Y-100623800D01*
X152326200Y-100330133D01*
X153055591Y-99552116D01*
X153071303Y-99526876D01*
X153076200Y-99500000D01*
X153076200Y-99175796D01*
X153097800Y-99067207D01*
X153097800Y-99067203D01*
X153105200Y-99030001D01*
X153097800Y-98992799D01*
X153097800Y-97447201D01*
X153105200Y-97409999D01*
X153097800Y-97372797D01*
X153097800Y-97372793D01*
X153076200Y-97264204D01*
X153076200Y-95000000D01*
X153070400Y-94970840D01*
X153053882Y-94946118D01*
X150076200Y-91968436D01*
X150076200Y-83750000D01*
X150070400Y-83720840D01*
X150053882Y-83696118D01*
X149926200Y-83568436D01*
X149926200Y-80476200D01*
X152673800Y-80476200D01*
X152673800Y-82968436D01*
D33*
G04 #@! TO.N,Net-(P1-Pad1)*
G36*
X144873000Y-80673000D02*
X141977000Y-80673000D01*
X141977000Y-65687000D01*
X144873000Y-65687000D01*
X144873000Y-80673000D01*
X144873000Y-80673000D01*
G37*
X144873000Y-80673000D02*
X141977000Y-80673000D01*
X141977000Y-65687000D01*
X144873000Y-65687000D01*
X144873000Y-80673000D01*
G04 #@! TO.N,GND*
G36*
X149023000Y-77373000D02*
X145877000Y-77373000D01*
X145877000Y-75377000D01*
X149023000Y-75377000D01*
X149023000Y-77373000D01*
X149023000Y-77373000D01*
G37*
X149023000Y-77373000D02*
X145877000Y-77373000D01*
X145877000Y-75377000D01*
X149023000Y-75377000D01*
X149023000Y-77373000D01*
G04 #@! TO.N,/PH_SW*
G36*
X147573000Y-104150000D02*
X147582667Y-104198601D01*
X147610197Y-104239803D01*
X147630990Y-104256614D01*
X150153000Y-105889078D01*
X150153000Y-107473000D01*
X146152606Y-107473000D01*
X145727000Y-107047394D01*
X145727000Y-104167312D01*
X146222367Y-102383991D01*
X146227000Y-102350000D01*
X146227000Y-100983406D01*
X147573000Y-100983406D01*
X147573000Y-104150000D01*
X147573000Y-104150000D01*
G37*
X147573000Y-104150000D02*
X147582667Y-104198601D01*
X147610197Y-104239803D01*
X147630990Y-104256614D01*
X150153000Y-105889078D01*
X150153000Y-107473000D01*
X146152606Y-107473000D01*
X145727000Y-107047394D01*
X145727000Y-104167312D01*
X146222367Y-102383991D01*
X146227000Y-102350000D01*
X146227000Y-100983406D01*
X147573000Y-100983406D01*
X147573000Y-104150000D01*
G04 #@! TO.N,GND*
G36*
X149623000Y-101500000D02*
X149632667Y-101548601D01*
X149660197Y-101589803D01*
X150160197Y-102089803D01*
X150201399Y-102117333D01*
X150250000Y-102127000D01*
X152773000Y-102127000D01*
X152773000Y-104373000D01*
X149952606Y-104373000D01*
X148377000Y-102797394D01*
X148377000Y-98500000D01*
X148367333Y-98451399D01*
X148339803Y-98410197D01*
X147627000Y-97697394D01*
X147627000Y-95377000D01*
X149623000Y-95377000D01*
X149623000Y-101500000D01*
X149623000Y-101500000D01*
G37*
X149623000Y-101500000D02*
X149632667Y-101548601D01*
X149660197Y-101589803D01*
X150160197Y-102089803D01*
X150201399Y-102117333D01*
X150250000Y-102127000D01*
X152773000Y-102127000D01*
X152773000Y-104373000D01*
X149952606Y-104373000D01*
X148377000Y-102797394D01*
X148377000Y-98500000D01*
X148367333Y-98451399D01*
X148339803Y-98410197D01*
X147627000Y-97697394D01*
X147627000Y-95377000D01*
X149623000Y-95377000D01*
X149623000Y-101500000D01*
D32*
G36*
X155196400Y-87923800D02*
X153031564Y-87923800D01*
X152426200Y-87318436D01*
X152426200Y-84181564D01*
X152781564Y-83826200D01*
X155196400Y-83826200D01*
X155196400Y-87923800D01*
X155196400Y-87923800D01*
G37*
X155196400Y-87923800D02*
X153031564Y-87923800D01*
X152426200Y-87318436D01*
X152426200Y-84181564D01*
X152781564Y-83826200D01*
X155196400Y-83826200D01*
X155196400Y-87923800D01*
G04 #@! TO.N,Net-(F1-Pad1)*
G36*
X154923800Y-75450000D02*
X154929600Y-75479160D01*
X154946118Y-75503882D01*
X155073800Y-75631564D01*
X155073800Y-77523800D01*
X152076200Y-77523800D01*
X152076200Y-65636200D01*
X154923800Y-65636200D01*
X154923800Y-75450000D01*
X154923800Y-75450000D01*
G37*
X154923800Y-75450000D02*
X154929600Y-75479160D01*
X154946118Y-75503882D01*
X155073800Y-75631564D01*
X155073800Y-77523800D01*
X152076200Y-77523800D01*
X152076200Y-65636200D01*
X154923800Y-65636200D01*
X154923800Y-75450000D01*
G04 #@! TO.N,VOut*
G36*
X151983800Y-117209437D02*
X151983800Y-118320000D01*
X151989600Y-118349160D01*
X152004397Y-118372103D01*
X153323800Y-119780123D01*
X153323800Y-122232012D01*
X152251845Y-124375922D01*
X152243800Y-124409759D01*
X152233800Y-127569759D01*
X152241845Y-127604078D01*
X153323800Y-129767988D01*
X153323800Y-139000000D01*
X153329600Y-139029160D01*
X153346118Y-139053882D01*
X154973877Y-140681641D01*
X154983614Y-144673800D01*
X152186200Y-144673800D01*
X152186200Y-141210000D01*
X152180400Y-141180840D01*
X152163882Y-141156118D01*
X150976200Y-139968436D01*
X150976200Y-129750000D01*
X150970400Y-129720840D01*
X150953882Y-129696118D01*
X149026200Y-127768436D01*
X149026200Y-119750000D01*
X149020400Y-119720840D01*
X149009186Y-119702006D01*
X146796049Y-116972801D01*
X146786629Y-115296200D01*
X150246269Y-115296200D01*
X151983800Y-117209437D01*
X151983800Y-117209437D01*
G37*
X151983800Y-117209437D02*
X151983800Y-118320000D01*
X151989600Y-118349160D01*
X152004397Y-118372103D01*
X153323800Y-119780123D01*
X153323800Y-122232012D01*
X152251845Y-124375922D01*
X152243800Y-124409759D01*
X152233800Y-127569759D01*
X152241845Y-127604078D01*
X153323800Y-129767988D01*
X153323800Y-139000000D01*
X153329600Y-139029160D01*
X153346118Y-139053882D01*
X154973877Y-140681641D01*
X154983614Y-144673800D01*
X152186200Y-144673800D01*
X152186200Y-141210000D01*
X152180400Y-141180840D01*
X152163882Y-141156118D01*
X150976200Y-139968436D01*
X150976200Y-129750000D01*
X150970400Y-129720840D01*
X150953882Y-129696118D01*
X149026200Y-127768436D01*
X149026200Y-119750000D01*
X149020400Y-119720840D01*
X149009186Y-119702006D01*
X146796049Y-116972801D01*
X146786629Y-115296200D01*
X150246269Y-115296200D01*
X151983800Y-117209437D01*
G04 #@! TO.N,GND*
G36*
X147973800Y-120621564D02*
X147973800Y-130258551D01*
X146045981Y-132196256D01*
X146029526Y-132221020D01*
X146023800Y-132250000D01*
X146023800Y-133149760D01*
X142667429Y-133149760D01*
X142667429Y-134946760D01*
X146023800Y-134946760D01*
X146023800Y-135149760D01*
X142723800Y-135149760D01*
X142723800Y-138196760D01*
X146023800Y-138196760D01*
X146023800Y-147946400D01*
X141803600Y-147946400D01*
X141803600Y-115076200D01*
X142428436Y-115076200D01*
X147973800Y-120621564D01*
X147973800Y-120621564D01*
G37*
X147973800Y-120621564D02*
X147973800Y-130258551D01*
X146045981Y-132196256D01*
X146029526Y-132221020D01*
X146023800Y-132250000D01*
X146023800Y-133149760D01*
X142667429Y-133149760D01*
X142667429Y-134946760D01*
X146023800Y-134946760D01*
X146023800Y-135149760D01*
X142723800Y-135149760D01*
X142723800Y-138196760D01*
X146023800Y-138196760D01*
X146023800Y-147946400D01*
X141803600Y-147946400D01*
X141803600Y-115076200D01*
X142428436Y-115076200D01*
X147973800Y-120621564D01*
G04 #@! TD*
M02*
