G04 #@! TF.GenerationSoftware,KiCad,Pcbnew,5.0.2*
G04 #@! TF.CreationDate,2020-03-26T08:27:29+01:00*
G04 #@! TF.ProjectId,cowdin-dcdc,636f7764-696e-42d6-9463-64632e6b6963,1*
G04 #@! TF.SameCoordinates,Original*
G04 #@! TF.FileFunction,Soldermask,Bot*
G04 #@! TF.FilePolarity,Negative*
%FSLAX46Y46*%
G04 Gerber Fmt 4.6, Leading zero omitted, Abs format (unit mm)*
G04 Created by KiCad (PCBNEW 5.0.2) date jeu. 26 mars 2020 08:27:29 CET*
%MOMM*%
%LPD*%
G01*
G04 APERTURE LIST*
%ADD10C,0.100000*%
G04 APERTURE END LIST*
D10*
G36*
X153880250Y-141882843D02*
X153965322Y-141899765D01*
X154035735Y-141928931D01*
X154205728Y-141999344D01*
X154422092Y-142143914D01*
X154606086Y-142327908D01*
X154750656Y-142544272D01*
X154850235Y-142784679D01*
X154901000Y-143039891D01*
X154901000Y-143300109D01*
X154850235Y-143555321D01*
X154750656Y-143795728D01*
X154606086Y-144012092D01*
X154422092Y-144196086D01*
X154205728Y-144340656D01*
X154035735Y-144411069D01*
X153965322Y-144440235D01*
X153880250Y-144457157D01*
X153710109Y-144491000D01*
X153449891Y-144491000D01*
X153279750Y-144457157D01*
X153194678Y-144440235D01*
X153124265Y-144411069D01*
X152954272Y-144340656D01*
X152737908Y-144196086D01*
X152553914Y-144012092D01*
X152409344Y-143795728D01*
X152309765Y-143555321D01*
X152259000Y-143300109D01*
X152259000Y-143039891D01*
X152309765Y-142784679D01*
X152409344Y-142544272D01*
X152553914Y-142327908D01*
X152737908Y-142143914D01*
X152954272Y-141999344D01*
X153124265Y-141928931D01*
X153194678Y-141899765D01*
X153279750Y-141882843D01*
X153449891Y-141849000D01*
X153710109Y-141849000D01*
X153880250Y-141882843D01*
X153880250Y-141882843D01*
G37*
G36*
X148800250Y-141882843D02*
X148885322Y-141899765D01*
X148955735Y-141928931D01*
X149125728Y-141999344D01*
X149342092Y-142143914D01*
X149526086Y-142327908D01*
X149670656Y-142544272D01*
X149770235Y-142784679D01*
X149821000Y-143039891D01*
X149821000Y-143300109D01*
X149770235Y-143555321D01*
X149670656Y-143795728D01*
X149526086Y-144012092D01*
X149342092Y-144196086D01*
X149125728Y-144340656D01*
X148955735Y-144411069D01*
X148885322Y-144440235D01*
X148800250Y-144457157D01*
X148630109Y-144491000D01*
X148369891Y-144491000D01*
X148199750Y-144457157D01*
X148114678Y-144440235D01*
X148044265Y-144411069D01*
X147874272Y-144340656D01*
X147657908Y-144196086D01*
X147473914Y-144012092D01*
X147329344Y-143795728D01*
X147229765Y-143555321D01*
X147179000Y-143300109D01*
X147179000Y-143039891D01*
X147229765Y-142784679D01*
X147329344Y-142544272D01*
X147473914Y-142327908D01*
X147657908Y-142143914D01*
X147874272Y-141999344D01*
X148044265Y-141928931D01*
X148114678Y-141899765D01*
X148199750Y-141882843D01*
X148369891Y-141849000D01*
X148630109Y-141849000D01*
X148800250Y-141882843D01*
X148800250Y-141882843D01*
G37*
G36*
X144741000Y-144491000D02*
X142099000Y-144491000D01*
X142099000Y-141849000D01*
X144741000Y-141849000D01*
X144741000Y-144491000D01*
X144741000Y-144491000D01*
G37*
G36*
X153880250Y-65542843D02*
X153965322Y-65559765D01*
X154035735Y-65588931D01*
X154205728Y-65659344D01*
X154422092Y-65803914D01*
X154606086Y-65987908D01*
X154750656Y-66204272D01*
X154850235Y-66444679D01*
X154901000Y-66699891D01*
X154901000Y-66960109D01*
X154850235Y-67215321D01*
X154750656Y-67455728D01*
X154606086Y-67672092D01*
X154422092Y-67856086D01*
X154205728Y-68000656D01*
X154035735Y-68071069D01*
X153965322Y-68100235D01*
X153880250Y-68117157D01*
X153710109Y-68151000D01*
X153449891Y-68151000D01*
X153279750Y-68117157D01*
X153194678Y-68100235D01*
X153124265Y-68071069D01*
X152954272Y-68000656D01*
X152737908Y-67856086D01*
X152553914Y-67672092D01*
X152409344Y-67455728D01*
X152309765Y-67215321D01*
X152259000Y-66960109D01*
X152259000Y-66699891D01*
X152309765Y-66444679D01*
X152409344Y-66204272D01*
X152553914Y-65987908D01*
X152737908Y-65803914D01*
X152954272Y-65659344D01*
X153124265Y-65588931D01*
X153194678Y-65559765D01*
X153279750Y-65542843D01*
X153449891Y-65509000D01*
X153710109Y-65509000D01*
X153880250Y-65542843D01*
X153880250Y-65542843D01*
G37*
G36*
X148800250Y-65542843D02*
X148885322Y-65559765D01*
X148955735Y-65588931D01*
X149125728Y-65659344D01*
X149342092Y-65803914D01*
X149526086Y-65987908D01*
X149670656Y-66204272D01*
X149770235Y-66444679D01*
X149821000Y-66699891D01*
X149821000Y-66960109D01*
X149770235Y-67215321D01*
X149670656Y-67455728D01*
X149526086Y-67672092D01*
X149342092Y-67856086D01*
X149125728Y-68000656D01*
X148955735Y-68071069D01*
X148885322Y-68100235D01*
X148800250Y-68117157D01*
X148630109Y-68151000D01*
X148369891Y-68151000D01*
X148199750Y-68117157D01*
X148114678Y-68100235D01*
X148044265Y-68071069D01*
X147874272Y-68000656D01*
X147657908Y-67856086D01*
X147473914Y-67672092D01*
X147329344Y-67455728D01*
X147229765Y-67215321D01*
X147179000Y-66960109D01*
X147179000Y-66699891D01*
X147229765Y-66444679D01*
X147329344Y-66204272D01*
X147473914Y-65987908D01*
X147657908Y-65803914D01*
X147874272Y-65659344D01*
X148044265Y-65588931D01*
X148114678Y-65559765D01*
X148199750Y-65542843D01*
X148369891Y-65509000D01*
X148630109Y-65509000D01*
X148800250Y-65542843D01*
X148800250Y-65542843D01*
G37*
G36*
X144741000Y-68151000D02*
X142099000Y-68151000D01*
X142099000Y-65509000D01*
X144741000Y-65509000D01*
X144741000Y-68151000D01*
X144741000Y-68151000D01*
G37*
M02*
