M48
;DRILL file {KiCad 5.0.2} date jeu. 26 mars 2020 08:27:32 CET
;FORMAT={-:-/ absolute / inch / decimal}
FMAT,2
INCH,TZ
T1C0.0120
T2C0.0600
%
G90
G05
T1
X5.5945Y-3.2677
X5.5945Y-3.3465
X5.5945Y-3.4252
X5.5945Y-3.5039
X5.5945Y-3.5827
X5.5945Y-3.6614
X5.5945Y-3.7402
X5.5945Y-3.8189
X5.5945Y-3.8976
X5.5945Y-3.9764
X5.5945Y-4.0551
X5.5945Y-4.1339
X5.5945Y-4.2126
X5.5945Y-4.2913
X5.5945Y-4.3701
X5.5945Y-4.4488
X5.5945Y-4.5276
X5.5945Y-4.6063
X5.5945Y-4.685
X5.5945Y-4.7638
X5.5945Y-4.8425
X5.5945Y-4.9213
X5.5945Y-5.
X5.5945Y-5.0787
X5.5945Y-5.1575
X5.5945Y-5.2358
X5.5945Y-5.315
X5.5945Y-5.3937
X5.5945Y-5.4724
X5.6335Y-4.0157
X5.6858Y-4.9213
X5.6858Y-5.
X5.6988Y-4.0157
X5.748Y-3.8583
X5.7579Y-2.9803
X5.7579Y-3.0197
X5.7776Y-4.9213
X5.7776Y-5.
X5.7972Y-2.9803
X5.7972Y-3.0197
X5.8268Y-3.7795
X5.8268Y-3.8386
X5.8661Y-3.878
X5.8661Y-3.9961
X5.876Y-4.0354
X5.876Y-4.065
X6.0039Y-4.0354
X6.0039Y-4.065
X6.0039Y-4.0945
X6.0138Y-3.3366
X6.0138Y-3.372
X6.0335Y-3.4016
X6.0689Y-3.4016
X6.0984Y-3.4252
X6.0984Y-3.5039
X6.0984Y-3.5827
X6.0984Y-3.6614
X6.0984Y-3.7402
X6.0984Y-3.8189
X6.0984Y-3.8976
X6.0984Y-3.9764
X6.0984Y-4.0551
X6.0984Y-4.1339
X6.0984Y-4.2126
X6.0984Y-4.2913
X6.0984Y-4.3701
X6.0984Y-4.4488
X6.0984Y-4.5276
X6.0984Y-4.6063
X6.0984Y-4.685
X6.0984Y-4.7638
X6.0984Y-4.8425
X6.0984Y-4.9213
X6.0984Y-5.
X6.0984Y-5.0787
X6.0984Y-5.1575
X6.0984Y-5.2362
X6.0984Y-5.315
X6.0984Y-5.3937
X6.0984Y-5.4724
T2
X5.6465Y-2.6311
X5.8465Y-2.6311
X6.0465Y-2.6311
X5.6465Y-5.6366
X5.8465Y-5.6366
X6.0465Y-5.6366
T0
M30
